<mxfile host="65bd71144e">
    <diagram id="5dXscFiHjnxwNbzUO7A-" name="Page-1">
        <mxGraphModel dx="1086" dy="459" grid="1" gridSize="10" guides="1" tooltips="1" connect="1" arrows="1" fold="1" page="1" pageScale="1" pageWidth="827" pageHeight="1169" math="0" shadow="0">
            <root>
                <mxCell id="0"/>
                <mxCell id="1" parent="0"/>
                <mxCell id="7" value="" style="rounded=0;whiteSpace=wrap;html=1;fontSize=24;fillColor=#FFFFFF;" parent="1" vertex="1">
                    <mxGeometry x="150" y="120" width="500" height="520" as="geometry"/>
                </mxCell>
                <mxCell id="6" value="" style="rounded=0;whiteSpace=wrap;html=1;fontSize=24;fillColor=none;strokeWidth=3;strokeColor=#000000;" parent="1" vertex="1">
                    <mxGeometry x="190" y="150" width="410" height="290" as="geometry"/>
                </mxCell>
                <mxCell id="2" value="AnimatronicServer" style="rounded=1;whiteSpace=wrap;html=1;fontSize=24;fontColor=#333333;fillColor=#FFFFFF;strokeColor=#000000;strokeWidth=3;" parent="1" vertex="1">
                    <mxGeometry x="280" y="330" width="230" height="90" as="geometry"/>
                </mxCell>
                <mxCell id="3" value="Animatronics" style="rounded=1;whiteSpace=wrap;html=1;fontSize=24;" parent="1" vertex="1">
                    <mxGeometry x="280" y="170" width="230" height="90" as="geometry"/>
                </mxCell>
                <mxCell id="5" value="" style="edgeStyle=none;html=1;fontSize=24;strokeWidth=6;strokeColor=#333333;" parent="1" source="2" target="3" edge="1">
                    <mxGeometry relative="1" as="geometry"/>
                </mxCell>
                <mxCell id="8" value="App" style="rounded=1;whiteSpace=wrap;html=1;fontSize=24;strokeColor=#000000;strokeWidth=3;fillColor=#FFFFFF;fontColor=#333333;" parent="1" vertex="1">
                    <mxGeometry x="170" y="570" width="120" height="60" as="geometry"/>
                </mxCell>
                <mxCell id="9" value="App" style="rounded=1;whiteSpace=wrap;html=1;fontSize=24;strokeColor=#000000;strokeWidth=3;fillColor=#FFFFFF;fontColor=#333333;" parent="1" vertex="1">
                    <mxGeometry x="335" y="570" width="120" height="60" as="geometry"/>
                </mxCell>
                <mxCell id="10" value="App" style="rounded=1;whiteSpace=wrap;html=1;fontSize=24;strokeColor=#000000;strokeWidth=3;fillColor=#FFFFFF;fontColor=#333333;" parent="1" vertex="1">
                    <mxGeometry x="500" y="570" width="120" height="60" as="geometry"/>
                </mxCell>
                <mxCell id="11" value="" style="endArrow=classic;html=1;fontSize=24;fontColor=#333333;strokeColor=#333333;strokeWidth=6;exitX=0.5;exitY=0;exitDx=0;exitDy=0;entryX=0.25;entryY=1;entryDx=0;entryDy=0;" parent="1" source="8" target="2" edge="1">
                    <mxGeometry width="50" height="50" relative="1" as="geometry">
                        <mxPoint x="240" y="420" as="sourcePoint"/>
                        <mxPoint x="290" y="370" as="targetPoint"/>
                    </mxGeometry>
                </mxCell>
                <mxCell id="15" value="JSON" style="edgeLabel;html=1;align=center;verticalAlign=middle;resizable=0;points=[];fontSize=20;fontColor=#333333;labelBackgroundColor=#FFFFFF;labelBorderColor=#000000;" parent="11" vertex="1" connectable="0">
                    <mxGeometry x="-0.0772" y="-2" relative="1" as="geometry">
                        <mxPoint x="-12" y="18" as="offset"/>
                    </mxGeometry>
                </mxCell>
                <mxCell id="17" value="" style="endArrow=classic;html=1;fontSize=24;fontColor=#333333;strokeColor=#333333;strokeWidth=6;entryX=0.5;entryY=1;entryDx=0;entryDy=0;" edge="1" parent="1" source="9" target="2">
                    <mxGeometry width="50" height="50" relative="1" as="geometry">
                        <mxPoint x="240" y="580" as="sourcePoint"/>
                        <mxPoint x="347.5" y="430" as="targetPoint"/>
                    </mxGeometry>
                </mxCell>
                <mxCell id="18" value="JSON" style="edgeLabel;html=1;align=center;verticalAlign=middle;resizable=0;points=[];fontSize=20;fontColor=#333333;labelBackgroundColor=#FFFFFF;labelBorderColor=#000000;" vertex="1" connectable="0" parent="17">
                    <mxGeometry x="-0.0772" y="-2" relative="1" as="geometry">
                        <mxPoint x="-2" y="18" as="offset"/>
                    </mxGeometry>
                </mxCell>
                <mxCell id="19" value="" style="endArrow=classic;html=1;fontSize=24;fontColor=#333333;strokeColor=#333333;strokeWidth=6;exitX=0.5;exitY=0;exitDx=0;exitDy=0;entryX=0.75;entryY=1;entryDx=0;entryDy=0;" edge="1" parent="1" source="10" target="2">
                    <mxGeometry width="50" height="50" relative="1" as="geometry">
                        <mxPoint x="250" y="590" as="sourcePoint"/>
                        <mxPoint x="357.5" y="440" as="targetPoint"/>
                    </mxGeometry>
                </mxCell>
                <mxCell id="20" value="JSON" style="edgeLabel;html=1;align=center;verticalAlign=middle;resizable=0;points=[];fontSize=20;fontColor=#333333;labelBackgroundColor=#FFFFFF;labelBorderColor=#000000;" vertex="1" connectable="0" parent="19">
                    <mxGeometry x="-0.0772" y="-2" relative="1" as="geometry">
                        <mxPoint x="18" y="18" as="offset"/>
                    </mxGeometry>
                </mxCell>
            </root>
        </mxGraphModel>
    </diagram>
</mxfile>